<svg width="134" height="24" viewBox="0 0 134 24" fill="none" xmlns="http://www.w3.org/2000/svg">
<path d="M133.693 18.4021C133.139 20.1134 132.144 21.4639 130.707 22.4536C129.271 23.4433 127.547 23.9382 125.536 23.9382C124.1 23.9382 122.838 23.701 121.75 23.2268C120.663 22.732 119.75 22.0722 119.011 21.2474C118.272 20.4227 117.718 19.4742 117.349 18.4021C116.98 17.3093 116.795 16.1753 116.795 15C116.795 13.8247 116.98 12.701 117.349 11.6289C117.718 10.5567 118.262 9.60825 118.98 8.78351C119.719 7.95877 120.622 7.29897 121.689 6.80412C122.776 6.30928 124.038 6.06186 125.475 6.06186C126.768 6.06186 127.937 6.28866 128.984 6.74227C130.051 7.19588 130.953 7.81444 131.692 8.59794C132.431 9.36083 132.995 10.2474 133.385 11.2577C133.795 12.268 134.001 13.3299 134.001 14.4433C134.001 14.732 133.98 15.0206 133.939 15.3093C133.919 15.5773 133.888 15.8557 133.847 16.1443H121.627C121.73 16.6392 121.894 17.1134 122.12 17.567C122.366 18.0206 122.674 18.4227 123.043 18.7732C123.413 19.1237 123.843 19.4021 124.336 19.6083C124.828 19.8144 125.393 19.9175 126.029 19.9175C126.665 19.9175 127.27 19.8041 127.845 19.5773C128.44 19.3299 128.891 18.9382 129.199 18.4021H133.693ZM129.107 12.5258C128.881 11.8454 128.491 11.268 127.937 10.7938C127.404 10.3196 126.675 10.0825 125.752 10.0825C124.808 10.0825 124.028 10.3196 123.413 10.7938C122.797 11.268 122.335 11.8454 122.028 12.5258H129.107Z" fill="white"/>
<path d="M108.85 12.8969C109.404 13.0412 110.05 13.2165 110.789 13.4227C111.527 13.6289 112.225 13.9278 112.882 14.3196C113.559 14.7113 114.133 15.2371 114.605 15.8969C115.077 16.5361 115.313 17.3711 115.313 18.4021C115.313 19.3505 115.108 20.1856 114.698 20.9072C114.308 21.6082 113.784 22.1856 113.128 22.6392C112.492 23.0928 111.763 23.433 110.942 23.6598C110.122 23.8866 109.291 24 108.449 24C106.397 24 104.797 23.5155 103.648 22.5464C102.499 21.5773 101.842 20.2371 101.678 18.5258H105.679C105.761 19.2268 106.028 19.7216 106.479 20.0103C106.931 20.2783 107.618 20.4124 108.542 20.4124C109.198 20.4124 109.742 20.299 110.173 20.0722C110.604 19.8247 110.819 19.4948 110.819 19.0825C110.819 18.5052 110.573 18.0825 110.081 17.8144C109.588 17.5464 108.983 17.3093 108.265 17.1031C107.588 16.8969 106.869 16.6907 106.11 16.4845C105.351 16.2577 104.653 15.9485 104.017 15.5567C103.381 15.1649 102.848 14.6598 102.417 14.0412C102.006 13.4021 101.801 12.5773 101.801 11.567C101.801 10.6186 101.986 9.80412 102.355 9.1237C102.745 8.42267 103.248 7.84535 103.863 7.39175C104.499 6.91752 105.218 6.567 106.018 6.3402C106.818 6.1134 107.639 5.99999 108.48 5.99999C109.609 5.99999 110.563 6.14432 111.343 6.43298C112.122 6.72164 112.758 7.1237 113.251 7.63917C113.764 8.13401 114.144 8.71133 114.39 9.37113C114.636 10.0309 114.78 10.732 114.821 11.4742H110.881C110.819 10.8144 110.583 10.3402 110.173 10.0515C109.783 9.74226 109.198 9.58762 108.419 9.58762C107.803 9.58762 107.29 9.71133 106.88 9.95876C106.49 10.2062 106.295 10.5258 106.295 10.9175C106.295 11.433 106.541 11.8454 107.034 12.1546C107.526 12.4433 108.131 12.6907 108.85 12.8969Z" fill="white"/>
<path d="M100.026 23.4433H95.4398L94.8857 21.8041H94.7934C94.1368 22.4639 93.3776 22.9897 92.5157 23.3814C91.6539 23.7526 90.7305 23.9381 89.7456 23.9381C88.8222 23.9381 87.9502 23.7835 87.1294 23.4742C86.3086 23.1649 85.5904 22.7526 84.9748 22.2371C84.3592 21.701 83.877 21.0825 83.5282 20.3814C83.1794 19.6598 83.0357 18.8969 83.0973 18.0928C83.1794 17.0206 83.4461 16.1649 83.8976 15.5258C84.3695 14.866 84.9441 14.3505 85.6212 13.9794C86.2983 13.6082 87.0473 13.3402 87.8681 13.1753C88.7094 13.0103 89.5507 12.8866 90.392 12.8041C91.2333 12.701 92.0233 12.5979 92.762 12.4948C93.5212 12.3711 94.1676 12.1753 94.7011 11.9072C94.5369 11.0412 94.2291 10.3711 93.7777 9.8969C93.3468 9.42268 92.6594 9.18556 91.7155 9.18556C91.0383 9.18556 90.433 9.38144 89.8995 9.77319C89.366 10.1649 89.0992 10.8144 89.0992 11.7216H84.5131C84.5542 10.9175 84.7491 10.1649 85.0979 9.46391C85.4468 8.76288 85.929 8.16494 86.5446 7.6701C87.1807 7.15463 87.9296 6.75257 88.7915 6.46391C89.6738 6.15463 90.6485 6 91.7155 6C93.2544 6 94.5266 6.20618 95.5321 6.61855C96.5581 7.03092 97.3686 7.59793 97.9637 8.31958C98.5792 9.02061 98.9999 9.84536 99.2256 10.7938C99.4718 11.7423 99.595 12.7629 99.595 13.8557V21.8041L100.026 23.4433ZM94.8857 14.6907C94.2086 14.8763 93.4699 15.0309 92.6696 15.1546C91.8899 15.2577 91.1512 15.3917 90.4535 15.5567C89.7764 15.7216 89.1916 15.9691 88.6991 16.299C88.2272 16.6289 87.9604 17.1031 87.8989 17.7216C87.8578 18.0722 87.9194 18.3918 88.0835 18.6804C88.2477 18.9485 88.4734 19.1753 88.7607 19.3608C89.0479 19.5464 89.3763 19.6907 89.7456 19.7938C90.115 19.8763 90.4843 19.9175 90.8537 19.9175C91.6334 19.9175 92.2798 19.8041 92.7928 19.5773C93.3057 19.3299 93.7161 19.0103 94.0239 18.6186C94.3317 18.2268 94.5472 17.7629 94.6703 17.2268C94.8139 16.6907 94.8857 16.134 94.8857 15.5567V14.6907Z" fill="white"/>
<path d="M73.7716 19.9175C74.7565 19.9175 75.5875 19.6392 76.2647 19.0825C76.9624 18.5051 77.383 17.7732 77.5266 16.8866H81.805C81.7639 17.9381 81.5382 18.8969 81.1278 19.7629C80.7379 20.6289 80.1942 21.3711 79.4965 21.9897C78.7989 22.6082 77.9576 23.0928 76.9726 23.4433C76.0082 23.7732 74.9412 23.9381 73.7716 23.9381C72.3352 23.9381 71.0733 23.6804 69.9857 23.1649C68.9187 22.6495 68.0364 21.9691 67.3387 21.1237C66.6411 20.2577 66.1178 19.2783 65.769 18.1856C65.4201 17.0722 65.2457 15.9278 65.2457 14.7526C65.2457 13.5773 65.4304 12.4639 65.7998 11.4124C66.1896 10.3608 66.7539 9.43298 67.4926 8.62886C68.2313 7.82474 69.1342 7.18556 70.2012 6.71133C71.2887 6.23711 72.5301 5.99999 73.9255 5.99999C74.9925 5.99999 75.9979 6.16494 76.9418 6.49484C77.9062 6.80412 78.7373 7.25773 79.435 7.85566C80.1531 8.43298 80.7174 9.13401 81.1278 9.95876C81.5587 10.7835 81.7844 11.6907 81.805 12.6804H77.4651C77.3009 11.9175 76.9418 11.299 76.3878 10.8247C75.8543 10.3299 75.1464 10.0825 74.264 10.0825C73.5253 10.0825 72.879 10.2371 72.325 10.5464C71.7914 10.835 71.3503 11.2165 71.0014 11.6907C70.6526 12.1443 70.3859 12.6701 70.2012 13.268C70.037 13.8454 69.955 14.4227 69.955 15C69.955 15.5155 70.0165 16.0619 70.1396 16.6392C70.2833 17.2165 70.4987 17.7526 70.786 18.2474C71.0938 18.7216 71.4939 19.1237 71.9864 19.4536C72.4788 19.7629 73.0739 19.9175 73.7716 19.9175Z" fill="white"/>
<path d="M53.3621 6.5567H56.1938V1.39175H60.8415V6.5567H64.0733V10.1443H60.8415V17.6907C60.8415 18.268 60.9338 18.7732 61.1185 19.2062C61.3032 19.6392 61.7238 19.8557 62.3805 19.8557H64.1349V23.4433H60.8415C59.9591 23.4433 59.2204 23.3402 58.6254 23.134C58.0303 22.9278 57.5481 22.6289 57.1788 22.2371C56.8299 21.8454 56.5734 21.3814 56.4093 20.8454C56.2656 20.2887 56.1938 19.6598 56.1938 18.9588V10.1443H53.3621V6.5567Z" fill="white"/>
<path d="M47.0465 23.4433V0H51.6942V23.4433H47.0465Z" fill="white"/>
<path d="M44.8096 23.4433H40.2235L39.6695 21.8041H39.5771C38.9205 22.4639 38.1613 22.9897 37.2995 23.3814C36.4377 23.7526 35.5143 23.9381 34.5294 23.9381C33.606 23.9381 32.7339 23.7835 31.9131 23.4742C31.0923 23.1649 30.3742 22.7526 29.7586 22.2371C29.143 21.701 28.6608 21.0825 28.3119 20.3814C27.9631 19.6598 27.8195 18.8969 27.881 18.0928C27.9631 17.0206 28.2299 16.1649 28.6813 15.5258C29.1532 14.866 29.7278 14.3505 30.4049 13.9794C31.0821 13.6082 31.831 13.3402 32.6518 13.1753C33.4931 13.0103 34.3344 12.8866 35.1757 12.8041C36.017 12.701 36.807 12.5979 37.5457 12.4948C38.3049 12.3711 38.9513 12.1753 39.4848 11.9072C39.3207 11.0412 39.0129 10.3711 38.5614 9.8969C38.1305 9.42268 37.4431 9.18556 36.4992 9.18556C35.8221 9.18556 35.2168 9.38144 34.6832 9.77319C34.1497 10.1649 33.883 10.8144 33.883 11.7216H29.2969C29.3379 10.9175 29.5329 10.1649 29.8817 9.46391C30.2305 8.76288 30.7127 8.16494 31.3283 7.6701C31.9644 7.15463 32.7134 6.75257 33.5752 6.46391C34.4575 6.15463 35.4322 6 36.4992 6C38.0382 6 39.3104 6.20618 40.3158 6.61855C41.3418 7.03092 42.1523 7.59793 42.7474 8.31958C43.363 9.02061 43.7836 9.84536 44.0094 10.7938C44.2556 11.7423 44.3787 12.7629 44.3787 13.8557V21.8041L44.8096 23.4433ZM39.6695 14.6907C38.9923 14.8763 38.2536 15.0309 37.4534 15.1546C36.6736 15.2577 35.9349 15.3917 35.2373 15.5567C34.5601 15.7216 33.9753 15.9691 33.4829 16.299C33.0109 16.6289 32.7442 17.1031 32.6826 17.7216C32.6416 18.0722 32.7031 18.3918 32.8673 18.6804C33.0314 18.9485 33.2571 19.1753 33.5444 19.3608C33.8317 19.5464 34.16 19.6907 34.5294 19.7938C34.8987 19.8763 35.2681 19.9175 35.6374 19.9175C36.4171 19.9175 37.0635 19.8041 37.5765 19.5773C38.0895 19.3299 38.4999 19.0103 38.8077 18.6186C39.1155 18.2268 39.3309 17.7629 39.454 17.2268C39.5977 16.6907 39.6695 16.134 39.6695 15.5567V14.6907Z" fill="white"/>
<path d="M4.67279 23.9986L0 24L17.9653 0H22.6631L4.67279 23.9986Z" fill="#28BF4E"/>
<path d="M16.4091 14.1167L9.12045 23.9987H23.8143L16.4091 14.1167Z" fill="#28BF4E"/>
</svg>
